<svg width="33" height="32" viewBox="0 0 33 32" fill="none" xmlns="http://www.w3.org/2000/svg">
<path d="M24.9285 4H7.68592C5.82185 4 4.29834 5.52924 4.29834 7.4003V24.5817C4.29834 26.4708 5.82185 27.982 7.68592 27.982H17.0959V17.6012H14.945V14.075H17.0959C17.0959 14.075 17.0959 13.5712 17.0959 11.2864C17.0959 8.67766 18.4939 7.31034 21.5768 7.31034C22.0787 7.31034 24.4446 7.31034 24.4446 7.31034V10.9265C24.4446 10.9265 22.8315 10.9265 22.2041 10.9265C21.4155 10.9265 21.2542 11.2504 21.2542 12.078C21.2542 12.7616 21.2542 14.075 21.2542 14.075H24.4625L24.1578 17.5652H21.2362V28H24.9106C26.7926 28 28.2982 26.4708 28.2982 24.5997V7.4003C28.3161 5.52924 26.7926 4 24.9285 4Z" fill="#334B95"/>
</svg>
