<svg width="87" height="75" viewBox="0 0 87 75" fill="none" xmlns="http://www.w3.org/2000/svg">
<g clip-path="url(#clip0)">
<path d="M83.5 39.9963C83.4994 34.0272 82.163 28.1339 79.5886 22.7486C77.0142 17.3632 73.2672 12.6222 68.6223 8.87332C63.9774 5.12441 58.5523 2.46258 52.7449 1.083C46.9374 -0.296573 40.8948 -0.358924 35.0602 0.900523C29.2255 2.15997 23.7466 4.70928 19.0254 8.36155C14.3041 12.0138 10.46 16.6764 7.77506 22.0075C5.09011 27.3386 3.63233 33.2031 3.5086 39.1709C3.38486 45.1386 4.59832 51.0584 7.06 56.4963H79.94C82.2913 51.3136 83.5052 45.6874 83.5 39.9963V39.9963Z" fill="#EAEFF9"/>
<path d="M4.5 56.4963H82.5" stroke="#2858D1" stroke-linecap="round" stroke-linejoin="round"/>
<path d="M0 56.4963H2.5" stroke="#2858D1" stroke-linecap="round" stroke-linejoin="round"/>
<path d="M84.5 56.4963H87" stroke="#2858D1" stroke-linecap="round" stroke-linejoin="round"/>
<path d="M40.5 19.4963H75.5C76.0304 19.4963 76.5391 19.707 76.9142 20.0821C77.2893 20.4571 77.5 20.9658 77.5 21.4963V40.9963H38.5V21.4963C38.5 20.9658 38.7107 20.4571 39.0858 20.0821C39.4609 19.707 39.9696 19.4963 40.5 19.4963Z" fill="white" stroke="#2858D1" stroke-linecap="round" stroke-linejoin="round"/>
<path d="M79.82 42.2463C79.8253 42.5708 79.7022 42.8843 79.4774 43.1185C79.2526 43.3526 78.9444 43.4884 78.62 43.4963H37.7C37.3684 43.4963 37.0505 43.3646 36.8161 43.1302C36.5816 42.8957 36.45 42.5778 36.45 42.2463C36.45 41.9148 36.5816 41.5968 36.8161 41.3624C37.0505 41.128 37.3684 40.9963 37.7 40.9963H78.62C78.9444 41.0041 79.2526 41.14 79.4774 41.3741C79.7022 41.6082 79.8253 41.9217 79.82 42.2463V42.2463Z" fill="#EAEFF9" stroke="#2858D1" stroke-linecap="round" stroke-linejoin="round"/>
<path d="M49.29 27.5563H48.65C48.5504 27.5622 48.4506 27.5468 48.3575 27.5111C48.2643 27.4754 48.1799 27.4202 48.1098 27.3491C48.0397 27.2781 47.9856 27.1929 47.9512 27.0993C47.9167 27.0057 47.9027 26.9058 47.91 26.8063C47.9072 26.7083 47.9245 26.6109 47.9607 26.5198C47.9969 26.4288 48.0513 26.3461 48.1206 26.2769C48.1898 26.2076 48.2725 26.1532 48.3635 26.117C48.4546 26.0807 48.552 26.0635 48.65 26.0663H50.19C50.2897 26.0629 50.3891 26.0809 50.4814 26.1191C50.5736 26.1573 50.6566 26.2148 50.7248 26.2878C50.793 26.3607 50.8448 26.4474 50.8767 26.542C50.9087 26.6366 50.92 26.7369 50.91 26.8363V32.9963C50.91 33.1026 50.889 33.208 50.8483 33.3062C50.8076 33.4045 50.7479 33.4938 50.6727 33.569C50.5975 33.6442 50.5082 33.7039 50.4099 33.7446C50.3117 33.7853 50.2063 33.8063 50.1 33.8063C49.9936 33.8063 49.8883 33.7853 49.79 33.7446C49.6917 33.7039 49.6024 33.6442 49.5272 33.569C49.452 33.4938 49.3923 33.4045 49.3516 33.3062C49.3109 33.208 49.29 33.1026 49.29 32.9963V27.5563Z" fill="#2858D1"/>
<path d="M54.25 28.8163C54.25 28.6439 54.3185 28.4785 54.4404 28.3566C54.5623 28.2347 54.7276 28.1663 54.9 28.1663C55.0724 28.1663 55.2378 28.2347 55.3596 28.3566C55.4815 28.4785 55.55 28.6439 55.55 28.8163V30.3863H57.12C57.2924 30.3863 57.4578 30.4547 57.5797 30.5766C57.7015 30.6985 57.77 30.8639 57.77 31.0363C57.77 31.2087 57.7015 31.374 57.5797 31.4959C57.4578 31.6178 57.2924 31.6863 57.12 31.6863H55.55V33.2563C55.55 33.4287 55.4815 33.594 55.3596 33.7159C55.2378 33.8378 55.0724 33.9063 54.9 33.9063C54.7276 33.9063 54.5623 33.8378 54.4404 33.7159C54.3185 33.594 54.25 33.4287 54.25 33.2563V31.6863H52.68C52.5076 31.6863 52.3423 31.6178 52.2204 31.4959C52.0985 31.374 52.03 31.2087 52.03 31.0363C52.03 30.8639 52.0985 30.6985 52.2204 30.5766C52.3423 30.4547 52.5076 30.3863 52.68 30.3863H54.25V28.8163Z" fill="#2858D1"/>
<path d="M59.7901 27.5563H59.1501C59.0513 27.5608 58.9527 27.5443 58.8607 27.5079C58.7688 27.4716 58.6856 27.4161 58.6166 27.3453C58.5476 27.2744 58.4945 27.1897 58.4606 27.0968C58.4267 27.0039 58.4129 26.9049 58.4201 26.8063C58.4173 26.7092 58.4343 26.6126 58.4699 26.5223C58.5055 26.4319 58.559 26.3497 58.6272 26.2806C58.6954 26.2115 58.7769 26.1568 58.8667 26.12C58.9566 26.0832 59.053 26.0649 59.1501 26.0663H60.6901C60.7907 26.0615 60.8911 26.0784 60.9846 26.116C61.0781 26.1535 61.1623 26.2108 61.2316 26.2839C61.3009 26.357 61.3537 26.4442 61.3862 26.5395C61.4187 26.6349 61.4302 26.7361 61.4201 26.8363V32.9963C61.4328 33.1109 61.4212 33.2269 61.386 33.3367C61.3509 33.4466 61.2929 33.5477 61.216 33.6336C61.1391 33.7196 61.0449 33.7883 60.9397 33.8353C60.8344 33.8824 60.7204 33.9067 60.6051 33.9067C60.4897 33.9067 60.3757 33.8824 60.2704 33.8353C60.1652 33.7883 60.071 33.7196 59.9941 33.6336C59.9172 33.5477 59.8593 33.4466 59.8241 33.3367C59.7889 33.2269 59.7773 33.1109 59.7901 32.9963V27.5563Z" fill="#2858D1"/>
<path d="M67.62 29.1763C67.7924 29.1763 67.9578 29.2448 68.0797 29.3666C68.2015 29.4885 68.27 29.6539 68.27 29.8263C68.27 29.9987 68.2015 30.164 68.0797 30.2859C67.9578 30.4078 67.7924 30.4763 67.62 30.4763H63.18C63.0076 30.4763 62.8423 30.4078 62.7204 30.2859C62.5985 30.164 62.53 29.9987 62.53 29.8263C62.53 29.6539 62.5985 29.4885 62.7204 29.3666C62.8423 29.2448 63.0076 29.1763 63.18 29.1763H67.62ZM67.62 31.5963C67.7054 31.5963 67.7899 31.6131 67.8688 31.6457C67.9476 31.6784 68.0193 31.7263 68.0797 31.7867C68.14 31.847 68.1879 31.9187 68.2206 31.9975C68.2532 32.0764 68.27 32.1609 68.27 32.2463C68.27 32.3316 68.2532 32.4162 68.2206 32.495C68.1879 32.5739 68.14 32.6455 68.0797 32.7059C68.0193 32.7662 67.9476 32.8141 67.8688 32.8468C67.7899 32.8795 67.7054 32.8963 67.62 32.8963H63.18C63.0947 32.8963 63.0102 32.8795 62.9313 32.8468C62.8524 32.8141 62.7808 32.7662 62.7204 32.7059C62.6601 32.6455 62.6122 32.5739 62.5795 32.495C62.5468 32.4162 62.53 32.3316 62.53 32.2463C62.53 32.1609 62.5468 32.0764 62.5795 31.9975C62.6122 31.9187 62.6601 31.847 62.7204 31.7867C62.7808 31.7263 62.8524 31.6784 62.9313 31.6457C63.0102 31.6131 63.0947 31.5963 63.18 31.5963H67.62Z" fill="#2858D1"/>
<path d="M72 45.9963H47C46.4477 45.9963 46 46.444 46 46.9963V48.0063C46 48.5586 46.4477 49.0063 47 49.0063H72C72.5523 49.0063 73 48.5586 73 48.0063V46.9963C73 46.444 72.5523 45.9963 72 45.9963Z" fill="white" stroke="#2858D1" stroke-linecap="round" stroke-linejoin="round"/>
<path d="M72 49.0063H47V56.4963H72V49.0063Z" fill="white"/>
<path d="M72 49.0063H47V56.4963H72V49.0063Z" stroke="#2858D1" stroke-linecap="round" stroke-linejoin="round"/>
<path d="M72 37.9963H69.5V45.9963H72V37.9963Z" fill="white" stroke="#2858D1" stroke-linecap="round" stroke-linejoin="round"/>
<path d="M69.5 37.9963H67V45.9963H69.5V37.9963Z" fill="white" stroke="#2858D1" stroke-linecap="round" stroke-linejoin="round"/>
<path d="M66.9938 38.8288L64.7867 37.8608L61.646 45.0224L63.8531 45.9903L66.9938 38.8288Z" fill="#EAEFF9" stroke="#2858D1" stroke-linecap="round" stroke-linejoin="round"/>
<path d="M43.25 46.9963L42.53 47.8563C42.2292 48.2104 41.8269 48.4637 41.3775 48.5819C40.928 48.7001 40.4532 48.6776 40.017 48.5173C39.5808 48.357 39.2044 48.0667 38.9384 47.6856C38.6725 47.3045 38.53 46.851 38.53 46.3863V42.4963C38.53 40.1093 37.5818 37.8201 35.894 36.1323C34.2062 34.4445 31.917 33.4963 29.53 33.4963C27.1431 33.4963 24.8539 34.4445 23.1661 36.1323C21.4782 37.8201 20.53 40.1093 20.53 42.4963V54.4963H24.03V51.4963H35.03V46.3863C35.0154 47.1546 35.1537 47.9182 35.4368 48.6327C35.7198 49.3471 36.142 49.9982 36.6789 50.5481C37.2158 51.098 37.8565 51.5357 38.564 51.8358C39.2715 52.1359 40.0315 52.2924 40.8 52.2963C41.6652 52.2957 42.5196 52.1046 43.3026 51.7365C44.0855 51.3683 44.7777 50.8322 45.33 50.1663L46.12 49.2263L43.25 46.9963Z" fill="white"/>
<path d="M43.25 46.9963L42.53 47.8563C42.2292 48.2104 41.8269 48.4637 41.3775 48.5819C40.928 48.7001 40.4532 48.6776 40.017 48.5173C39.5808 48.357 39.2044 48.0667 38.9384 47.6856C38.6725 47.3045 38.53 46.851 38.53 46.3863V42.4963C38.53 40.1093 37.5818 37.8201 35.894 36.1323C34.2062 34.4445 31.917 33.4963 29.53 33.4963C27.1431 33.4963 24.8539 34.4445 23.1661 36.1323C21.4782 37.8201 20.53 40.1093 20.53 42.4963V54.4963H24.03V51.4963H35.03V46.3863C35.0154 47.1546 35.1537 47.9182 35.4368 48.6327C35.7198 49.3471 36.142 49.9982 36.6789 50.5481C37.2158 51.098 37.8565 51.5357 38.564 51.8358C39.2715 52.1359 40.0315 52.2924 40.8 52.2963C41.6652 52.2957 42.5196 52.1046 43.3026 51.7365C44.0855 51.3683 44.7777 50.8322 45.33 50.1663L46.12 49.2263L43.25 46.9963Z" stroke="#2858D1" stroke-linecap="round" stroke-linejoin="round"/>
<path d="M29.5 73.4963C35.0228 73.4963 39.5 72.8247 39.5 71.9963C39.5 71.1678 35.0228 70.4963 29.5 70.4963C23.9772 70.4963 19.5 71.1678 19.5 71.9963C19.5 72.8247 23.9772 73.4963 29.5 73.4963Z" fill="#EAEFF9"/>
<path d="M29.5001 70.7963C29.5001 71.1145 29.3736 71.4198 29.1486 71.6448C28.9236 71.8698 28.6183 71.9963 28.3001 71.9963H25.6301C25.4503 71.9897 25.2743 71.943 25.1148 71.8598C24.9553 71.7766 24.8164 71.6588 24.7081 71.5152C24.5999 71.3715 24.5251 71.2055 24.4891 71.0292C24.4531 70.853 24.4568 70.6709 24.5001 70.4963L25.5001 66.9963H29.5001V70.7963Z" fill="#EAEFF9" stroke="#2858D1" stroke-linejoin="round"/>
<path d="M24 56.2463C24 56.7104 23.8156 57.1555 23.4874 57.4837C23.1592 57.8119 22.7141 57.9963 22.25 57.9963C21.7859 57.9963 21.3408 57.8119 21.0126 57.4837C20.6844 57.1555 20.5 56.7104 20.5 56.2463V54.4963H24V56.2463Z" fill="white" stroke="#2858D1" stroke-linecap="round" stroke-linejoin="round"/>
<path d="M27.5 69.3263C26.36 69.3263 25.5 68.6563 25.5 66.9963H29.5C29.5 68.6563 28.65 69.3263 27.5 69.3263Z" fill="white" stroke="#2858D1" stroke-linecap="round" stroke-linejoin="round"/>
<path d="M29.5 70.7963C29.5 70.9539 29.531 71.1099 29.5913 71.2555C29.6516 71.4011 29.74 71.5334 29.8515 71.6448C29.9629 71.7562 30.0952 71.8446 30.2408 71.9049C30.3864 71.9652 30.5424 71.9963 30.7 71.9963H33.37C33.5498 71.9897 33.7258 71.943 33.8853 71.8598C34.0448 71.7766 34.1837 71.6588 34.2919 71.5152C34.4002 71.3715 34.475 71.2055 34.511 71.0292C34.547 70.853 34.5432 70.6709 34.5 70.4963L33.5 66.9963H29.5V70.7963Z" fill="#EAEFF9" stroke="#2858D1" stroke-linejoin="round"/>
<path d="M31.5 69.3263C32.64 69.3263 33.5 68.6563 33.5 66.9963H29.5C29.5 68.6563 30.35 69.3263 31.5 69.3263Z" fill="white" stroke="#2858D1" stroke-linecap="round" stroke-linejoin="round"/>
<path d="M29.5 37.1063V51.4963" stroke="#2858D1" stroke-linecap="round" stroke-linejoin="round"/>
<path d="M24 53.4963V46.4963C24 44.6363 22.77 44.0663 22.77 42.0163" stroke="#2858D1" stroke-linecap="round" stroke-linejoin="round"/>
<path d="M35 50.9963V46.4763C35 44.6163 36.23 44.0463 36.23 41.9963" stroke="#2858D1" stroke-linecap="round" stroke-linejoin="round"/>
<path d="M47.12 47.9362L46.12 49.2363L43.28 46.9963L44.28 45.6963C44.5773 45.32 45.0117 45.077 45.488 45.0208C45.9642 44.9646 46.4433 45.0996 46.82 45.3963V45.3963C47.1963 45.6935 47.4392 46.128 47.4955 46.6042C47.5517 47.0804 47.4167 47.5595 47.12 47.9362V47.9362Z" fill="white" stroke="#2858D1" stroke-linecap="round" stroke-linejoin="round"/>
<path d="M45.89 47.1262L55.49 36.7162" stroke="#2858D1" stroke-linecap="round" stroke-linejoin="round"/>
<path d="M24 51.4963L25.5 66.9963H33.5L35 51.4963H24Z" fill="#EAEFF9" stroke="#2858D1" stroke-linejoin="round"/>
<path d="M24 51.4963L25.5 66.9963H33.5L35 51.4963H24Z" stroke="#2858D1" stroke-linejoin="round"/>
<path d="M29.5 66.9963V55.5463" stroke="#2858D1" stroke-linecap="round" stroke-linejoin="round"/>
<path d="M36.5 25.4963C36.4981 25.2114 36.3973 24.936 36.215 24.7172C36.0326 24.4983 35.7799 24.3495 35.5 24.2963V23.4963C35.5 21.905 34.8679 20.3789 33.7427 19.2536C32.6174 18.1284 31.0913 17.4963 29.5 17.4963C27.9087 17.4963 26.3826 18.1284 25.2574 19.2536C24.1322 20.3789 23.5 21.905 23.5 23.4963V24.2963C23.2201 24.3495 22.9675 24.4983 22.7851 24.7172C22.6027 24.936 22.5019 25.2114 22.5 25.4963C22.4986 25.808 22.6137 26.109 22.8227 26.3403C23.0318 26.5716 23.3197 26.7164 23.63 26.7463C23.9148 28.092 24.6534 29.2991 25.722 30.1652C26.7906 31.0314 28.1244 31.5041 29.5 31.5041C30.8756 31.5041 32.2094 31.0314 33.278 30.1652C34.3467 29.2991 35.0852 28.092 35.37 26.7463C35.6803 26.7164 35.9682 26.5716 36.1773 26.3403C36.3864 26.109 36.5015 25.808 36.5 25.4963Z" fill="white" stroke="#2858D1" stroke-linecap="round" stroke-linejoin="round"/>
<path d="M26.25 26.9963C26.6642 26.9963 27 26.6605 27 26.2463C27 25.8321 26.6642 25.4963 26.25 25.4963C25.8358 25.4963 25.5 25.8321 25.5 26.2463C25.5 26.6605 25.8358 26.9963 26.25 26.9963Z" fill="#EAEFF9"/>
<path d="M32.75 26.9963C33.1642 26.9963 33.5 26.6605 33.5 26.2463C33.5 25.8321 33.1642 25.4963 32.75 25.4963C32.3358 25.4963 32 25.8321 32 26.2463C32 26.6605 32.3358 26.9963 32.75 26.9963Z" fill="#EAEFF9"/>
<path d="M32.2 24.4963C32.0407 24.3375 31.8249 24.2484 31.6 24.2484C31.3751 24.2484 31.1593 24.3375 31 24.4963" stroke="#2858D1" stroke-linecap="round" stroke-linejoin="round"/>
<path d="M26.8 24.4963C26.9594 24.3375 27.1751 24.2484 27.4001 24.2484C27.625 24.2484 27.8407 24.3375 28 24.4963" stroke="#2858D1" stroke-linecap="round" stroke-linejoin="round"/>
<path d="M31 27.9963C30.5673 28.3208 30.0409 28.4963 29.5 28.4963C28.9591 28.4963 28.4327 28.3208 28 27.9963" stroke="#2858D1" stroke-linecap="round" stroke-linejoin="round"/>
<path d="M37.7 25.0963C36.44 21.3063 34.07 16.0963 29.5 15.9363C24.93 16.0663 22.56 21.3063 21.3 25.0963C20.8388 26.4978 20.9102 28.02 21.5006 29.3722C22.0909 30.7244 23.1587 31.8117 24.5 32.4263L27.29 33.7463C26.2002 34.0317 25.1796 34.5352 24.29 35.2263C24.96 37.2263 25.36 39.9463 29.53 40.0263C33.7 39.9463 34.1 37.2263 34.77 35.2263C33.8804 34.5352 32.8598 34.0317 31.77 33.7463L34.5 32.4263C35.8413 31.8117 36.9091 30.7244 37.4995 29.3722C38.0898 28.02 38.1612 26.4978 37.7 25.0963ZM29.5 31.5663C26.2 31.4863 24.74 28.9263 23.94 27.3563C22.94 25.4563 26.16 20.3563 29.5 20.1463C32.84 20.3263 36.03 25.4563 35.06 27.3563C34.26 28.9263 32.8 31.4863 29.5 31.5663Z" fill="white"/>
<path d="M29.5 31.5663C26.2 31.4863 24.74 28.9263 23.94 27.3563C22.94 25.4563 26.16 20.3563 29.5 20.1463C32.84 20.3263 36.03 25.4563 35.06 27.3563C34.26 28.9263 32.8 31.4863 29.5 31.5663Z" stroke="#2858D1" stroke-linecap="round" stroke-linejoin="round"/>
<path d="M27.1899 36.3863C27.8964 36.7795 28.6915 36.9858 29.4999 36.9858C30.3084 36.9858 31.1035 36.7795 31.8099 36.3863" stroke="#2858D1" stroke-linecap="round" stroke-linejoin="round"/>
<path d="M37.7 25.0963C36.44 21.3063 34.07 16.0963 29.5 15.9363C24.93 16.0663 22.56 21.3063 21.3 25.0963C20.8388 26.4978 20.9102 28.02 21.5006 29.3722C22.0909 30.7244 23.1587 31.8117 24.5 32.4263L27.29 33.7463C26.2002 34.0317 25.1796 34.5352 24.29 35.2263C24.96 37.2263 25.36 39.9463 29.53 40.0263C33.7 39.9463 34.1 37.2263 34.77 35.2263C33.8804 34.5352 32.8598 34.0317 31.77 33.7463L34.5 32.4263C35.8413 31.8117 36.9091 30.7244 37.4995 29.3722C38.0898 28.02 38.1612 26.4978 37.7 25.0963Z" stroke="#2858D1" stroke-linecap="round" stroke-linejoin="round"/>
</g>
<defs>
<clipPath id="clip0">
<rect width="87" height="75" fill="white"/>
</clipPath>
</defs>
</svg>
