<svg width="33" height="32" viewBox="0 0 33 32" fill="none" xmlns="http://www.w3.org/2000/svg">
<path fill-rule="evenodd" clip-rule="evenodd" d="M16.7017 2.5C13.0353 2.5 12.5755 2.51554 11.1356 2.58124C9.69871 2.64678 8.71735 2.87501 7.85865 3.20876C6.9709 3.55371 6.21804 4.01532 5.46748 4.76582C4.71698 5.51638 4.25537 6.26924 3.91042 7.15699C3.57667 8.01569 3.34844 8.99705 3.2829 10.434C3.2172 11.8739 3.20166 12.3336 3.20166 16C3.20166 19.6664 3.2172 20.1261 3.2829 21.566C3.34844 23.003 3.57667 23.9843 3.91042 24.843C4.25537 25.7308 4.71698 26.4836 5.46748 27.2342C6.21804 27.9847 6.9709 28.4463 7.85865 28.7913C8.71735 29.125 9.69871 29.3532 11.1356 29.4188C12.5755 29.4845 13.0353 29.5 16.7017 29.5C20.368 29.5 20.8278 29.4845 22.2677 29.4188C23.7046 29.3532 24.686 29.125 25.5447 28.7913C26.4324 28.4463 27.1853 27.9847 27.9358 27.2342C28.6863 26.4836 29.148 25.7308 29.493 24.843C29.8266 23.9843 30.0549 23.003 30.1204 21.566C30.1861 20.1261 30.2017 19.6664 30.2017 16C30.2017 12.3336 30.1861 11.8739 30.1204 10.434C30.0549 8.99705 29.8266 8.01569 29.493 7.15699C29.148 6.26924 28.6863 5.51638 27.9358 4.76582C27.1853 4.01532 26.4324 3.55371 25.5447 3.20876C24.686 2.87501 23.7046 2.64678 22.2677 2.58124C20.8278 2.51554 20.368 2.5 16.7017 2.5ZM16.7017 4.93243C20.3063 4.93243 20.7333 4.9462 22.1568 5.01115C23.4731 5.07117 24.1879 5.29109 24.6636 5.47597C25.2937 5.72087 25.7434 6.01341 26.2158 6.48585C26.6882 6.95823 26.9808 7.40794 27.2257 8.03809C27.4106 8.51379 27.6305 9.2286 27.6905 10.5448C27.7555 11.9684 27.7692 12.3954 27.7692 16C27.7692 19.6046 27.7555 20.0316 27.6905 21.4552C27.6305 22.7714 27.4106 23.4862 27.2257 23.9619C26.9808 24.5921 26.6882 25.0418 26.2158 25.5142C25.7434 25.9866 25.2937 26.2791 24.6636 26.524C24.1879 26.7089 23.4731 26.9288 22.1568 26.9889C20.7335 27.0538 20.3066 27.0676 16.7017 27.0676C13.0967 27.0676 12.6699 27.0538 11.2465 26.9889C9.93027 26.9288 9.21545 26.7089 8.73975 26.524C8.1096 26.2791 7.65989 25.9866 7.18751 25.5142C6.71513 25.0418 6.42253 24.5921 6.17763 23.9619C5.99275 23.4862 5.77283 22.7714 5.71281 21.4552C5.64786 20.0316 5.63409 19.6046 5.63409 16C5.63409 12.3954 5.64786 11.9684 5.71281 10.5448C5.77283 9.2286 5.99275 8.51379 6.17763 8.03809C6.42253 7.40794 6.71507 6.95823 7.18751 6.48585C7.65989 6.01341 8.1096 5.72087 8.73975 5.47597C9.21545 5.29109 9.93027 5.07117 11.2465 5.01115C12.67 4.9462 13.097 4.93243 16.7017 4.93243ZM16.7017 20.5C14.2164 20.5 12.2017 18.4853 12.2017 16C12.2017 13.5147 14.2164 11.5 16.7017 11.5C19.187 11.5 21.2017 13.5147 21.2017 16C21.2017 18.4853 19.187 20.5 16.7017 20.5ZM16.7017 9.06757C12.873 9.06757 9.76923 12.1713 9.76923 16C9.76923 19.8287 12.873 22.9324 16.7017 22.9324C20.5304 22.9324 23.6341 19.8287 23.6341 16C23.6341 12.1713 20.5304 9.06757 16.7017 9.06757ZM25.528 8.79368C25.528 7.89897 24.8027 7.17365 23.908 7.17365C23.0133 7.17365 22.288 7.89897 22.288 8.79368C22.288 9.68839 23.0133 10.4137 23.908 10.4137C24.8027 10.4137 25.528 9.68839 25.528 8.79368Z" fill="black"/>
</svg>
