<svg width="33" height="32" viewBox="0 0 33 32" fill="none" xmlns="http://www.w3.org/2000/svg">
<path fill-rule="evenodd" clip-rule="evenodd" d="M25.3891 25.1554H21.5354V19.1214C21.5354 17.6819 21.509 15.8312 19.5316 15.8312C17.5247 15.8312 17.2174 17.3988 17.2174 19.0173V25.1554H13.3638V12.7475H17.0632V14.4427H17.1145C17.629 13.4673 18.887 12.4387 20.7631 12.4387C24.6682 12.4387 25.3891 15.0086 25.3891 18.3494V25.1554ZM9.0178 11.0513C7.78172 11.0513 6.78126 10.0491 6.78126 8.81479C6.78126 7.58142 7.78172 6.57951 9.0178 6.57951C10.2506 6.57951 11.2525 7.58142 11.2525 8.81479C11.2525 10.0491 10.2506 11.0513 9.0178 11.0513ZM7.08875 25.1554H10.9452V12.7475H7.08875V25.1554ZM27.3097 3H5.15301C4.09423 3 3.23389 3.83922 3.23389 4.87399V27.1238C3.23389 28.1595 4.09423 29 5.15301 29H27.3097C28.3703 29 29.2342 28.1595 29.2342 27.1238V4.87399C29.2342 3.83922 28.3703 3 27.3097 3Z" fill="#076DAE"/>
</svg>
