<svg width="297" height="32" viewBox="0 0 297 32" fill="none" xmlns="http://www.w3.org/2000/svg">
<rect width="297" height="32" fill="white"/>
<path fill-rule="evenodd" clip-rule="evenodd" d="M27.3137 27.3137C21.0653 33.5621 10.9347 33.5621 4.68629 27.3137C-1.5621 21.0653 -1.5621 10.9347 4.68629 4.68629C10.9347 -1.5621 21.0653 -1.5621 27.3137 4.68629C33.5621 10.9347 33.5621 21.0653 27.3137 27.3137ZM15.6464 11.0503L20.2426 15.6464L16.3536 19.5355L11.7574 14.9393L6.03386 20.6628C4.1279 16.5884 4.85722 11.5864 8.22183 8.22183C12.5176 3.92606 19.4824 3.92606 23.7782 8.22183C28.0739 12.5176 28.0739 19.4824 23.7782 23.7782C19.7813 27.7751 13.4738 28.0531 9.15538 24.6124L7.37832 26.3894C12.682 30.8012 20.5719 30.52 25.5459 25.5459C30.818 20.2739 30.818 11.7261 25.5459 6.45406C20.2739 1.18198 11.7261 1.18198 6.45406 6.45406C1.48 11.4281 1.19883 19.318 5.61055 24.6217L11.7574 18.4749L15.6464 22.364C16.037 22.7545 16.6701 22.7545 17.0607 22.364L23.0711 16.3536C23.4616 15.963 23.4616 15.3299 23.0711 14.9393L17.4142 9.28249L18.3224 8.37434C18.3974 8.29932 18.4395 8.19758 18.4395 8.0915C18.4395 7.87058 18.2604 7.6915 18.0395 7.6915H14.4555C14.2345 7.6915 14.0555 7.87058 14.0555 8.0915V11.6756C14.0555 11.7816 14.0976 11.8834 14.1726 11.9584C14.3288 12.1146 14.5821 12.1146 14.7383 11.9584L15.6464 11.0503Z" fill="#2858D1"/>
<path fill-rule="evenodd" clip-rule="evenodd" d="M45.7187 14.8695C45.3462 15.2276 44.8266 15.4067 44.16 15.4067H42.062V11.3684H44.16C44.8266 11.3684 45.3462 11.5475 45.7187 11.9056C46.1043 12.2637 46.2971 12.761 46.2971 13.3976C46.2971 14.0076 46.1043 14.4983 45.7187 14.8695ZM42.0424 23.0849V17.7736H44.4867C45.1534 17.7736 45.7645 17.6676 46.3167 17.4554C46.8657 17.2299 47.3428 16.925 47.7382 16.5405C48.1369 16.1558 48.4376 15.6917 48.6434 15.148C48.8624 14.6043 48.9702 14.0141 48.9702 13.3775C48.9702 12.7411 48.8624 12.1575 48.6434 11.6271C48.4376 11.0834 48.1369 10.6193 47.7382 10.2348C47.3428 9.83677 46.8657 9.53187 46.3167 9.31967C46.0586 9.21388 45.7873 9.13301 45.503 9.07685C45.1795 9.01329 44.8397 8.98162 44.4867 8.98162H39.3889V23.0849H42.0424ZM50.2872 13.2981V23.0849H52.8459V13.2981H50.2872ZM50.1695 9.29011C50.0421 9.5285 49.98 9.79686 49.98 10.0954C49.98 10.5331 50.1336 10.9111 50.4407 11.2293C50.7479 11.5475 51.1205 11.7067 51.5583 11.7067C52.006 11.7067 52.3786 11.5475 52.6727 11.2293C52.9799 10.9111 53.1367 10.5331 53.1367 10.0954C53.1367 9.63132 52.9799 9.24007 52.6727 8.92187C52.5289 8.76519 52.3655 8.64695 52.1825 8.56735C51.993 8.48542 51.7871 8.44446 51.5583 8.44446C51.2937 8.44446 51.0551 8.50189 50.8394 8.61697C50.6956 8.6934 50.5617 8.79496 50.4407 8.92187C50.3296 9.03525 50.2414 9.15814 50.1695 9.29011ZM53.8752 13.2981L57.2411 18.1717L53.8752 23.0849H56.7607L56.8751 22.8917L57.1463 22.4683C57.3261 22.1898 57.5156 21.898 57.7215 21.5929L58.2999 20.6978L58.7051 20.0813L60.6854 23.0849H63.6886L60.2606 18.0921L63.5709 13.2981H60.6658L58.7999 16.2023C58.7214 16.0697 58.594 15.8708 58.4143 15.6056L57.8555 14.7502L57.2999 13.9147C57.1202 13.6362 56.9895 13.4307 56.9143 13.2981H53.8752ZM70.2602 16.3813C70.3517 16.6068 70.4007 16.8389 70.4138 17.0775H66.1819C66.195 16.852 66.2473 16.6267 66.3355 16.4012C66.4401 16.1757 66.5806 15.9702 66.7603 15.7846C66.9401 15.5988 67.1557 15.4464 67.4139 15.3271C67.6688 15.2078 67.9662 15.148 68.2995 15.148C68.6589 15.148 68.9661 15.2078 69.221 15.3271C69.4922 15.4331 69.7079 15.579 69.8778 15.7646C70.0543 15.9371 70.185 16.1425 70.2602 16.3813ZM72.2438 21.4934C72.4987 21.1089 72.6849 20.7044 72.7993 20.2802L70.6654 19.6237C70.5118 20.0612 70.2602 20.4193 69.9138 20.6978C69.5805 20.9763 69.1132 21.1155 68.5086 21.1155C68.1884 21.1155 67.8877 21.0625 67.6067 20.9565C67.4498 20.8906 67.3028 20.8127 67.1688 20.723C67.0577 20.6497 66.9531 20.5684 66.8551 20.4791C66.6492 20.2802 66.476 20.0481 66.3355 19.7827C66.2081 19.5044 66.1362 19.2059 66.1231 18.8877H72.8973L72.9169 18.6092C72.93 18.4369 72.9365 18.2578 72.9365 18.0722C72.9365 17.3391 72.8483 16.679 72.6719 16.0921C72.466 15.4151 72.1425 14.8353 71.7046 14.3524C71.3092 13.9181 70.8353 13.5883 70.2896 13.3632C69.7014 13.121 69.0249 12.9998 68.2603 12.9998C67.6557 12.9998 67.074 13.1256 66.5087 13.3775C65.9434 13.6163 65.4434 13.9611 65.0088 14.4119C64.5839 14.8497 64.2441 15.3868 63.9892 16.0232C63.731 16.6598 63.6036 17.3693 63.6036 18.1516C63.6036 18.9738 63.731 19.7099 63.9892 20.3598C64.2572 21.0095 64.6166 21.5597 65.0676 22.0108C65.5153 22.4616 66.0349 22.8064 66.6231 23.0452C67.2146 23.2705 67.8355 23.3832 68.4923 23.3832C69.0674 23.3832 69.5935 23.2971 70.0674 23.1246C70.5576 22.9656 70.9791 22.7466 71.3386 22.4683C71.698 22.1898 71.9987 21.8649 72.2438 21.4934ZM74.3744 8.68306V23.0849H76.9331V8.68306H74.3744ZM88.0143 23.3815C88.1941 23.3959 88.3771 23.4031 88.5633 23.4031C89.2953 23.4031 89.9816 23.2903 90.6221 23.065C91.2626 22.8395 91.8148 22.5015 92.2756 22.0505C92.7527 21.5997 93.122 21.0426 93.3932 20.3796C93.586 19.9214 93.7135 19.416 93.7756 18.863C93.8017 18.6155 93.8148 18.3585 93.8148 18.0921V8.98162H91.1613V17.8931C91.1613 18.8214 90.9293 19.5243 90.4685 20.0017C90.2169 20.2641 89.9097 20.4544 89.5502 20.5724C89.2561 20.6693 88.9261 20.7177 88.5633 20.7177C87.7693 20.7177 87.1386 20.4791 86.6778 20.0017C86.217 19.5243 85.985 18.8214 85.985 17.8931V8.98162H83.3283V18.0921C83.3283 18.954 83.4655 19.7164 83.7335 20.3796C84.0145 21.0426 84.387 21.5997 84.8511 22.0505C85.0962 22.2844 85.3641 22.488 85.6517 22.6611C85.9197 22.8218 86.204 22.9565 86.5046 23.065C86.9817 23.2333 87.4882 23.3389 88.0143 23.3815ZM95.9421 23.0849H98.5008V17.4554C98.5008 16.8853 98.6544 16.4079 98.9616 16.0232C99.2688 15.6254 99.7067 15.4265 100.272 15.4265C100.886 15.4265 101.328 15.6121 101.599 15.9835C101.726 16.1533 101.827 16.3423 101.896 16.5509C101.981 16.7986 102.02 17.0735 102.02 17.3758V23.0849H104.582V16.9185C104.582 16.3879 104.51 15.8841 104.37 15.4067C104.242 14.9293 104.037 14.5181 103.752 14.1733C103.622 14.011 103.471 13.8649 103.305 13.7348C103.115 13.5887 102.906 13.463 102.677 13.3577C102.412 13.2251 102.115 13.1339 101.785 13.084C101.586 13.0543 101.377 13.0395 101.154 13.0395C100.641 13.0395 100.128 13.1588 99.6152 13.3976C99.1838 13.6032 98.8309 13.9075 98.5531 14.31L98.4224 14.5114V13.2981H95.9421V23.0849ZM106.602 13.2981V23.0849H109.161V13.2981H106.602ZM106.755 8.92187C106.448 9.24007 106.291 9.63132 106.291 10.0954C106.291 10.5331 106.448 10.9111 106.755 11.2293C107.063 11.5475 107.435 11.7067 107.87 11.7067C108.321 11.7067 108.693 11.5475 108.987 11.2293C109.2 11.0086 109.34 10.7593 109.406 10.481C109.435 10.3581 109.448 10.2295 109.448 10.0954C109.448 9.63132 109.295 9.24007 108.987 8.92187C108.693 8.60366 108.321 8.44446 107.87 8.44446C107.435 8.44446 107.063 8.60366 106.755 8.92187ZM116.48 20.7973C116.183 20.9166 115.882 20.9763 115.575 20.9763C115.268 20.9763 114.964 20.9166 114.67 20.7973C114.376 20.678 114.118 20.5055 113.902 20.2802C113.683 20.0414 113.503 19.7496 113.363 19.405C113.232 19.0602 113.17 18.6556 113.17 18.1915C113.17 17.7274 113.232 17.3228 113.363 16.978C113.503 16.6332 113.683 16.3482 113.902 16.1227C114.118 15.8841 114.376 15.705 114.67 15.5857C114.801 15.5321 114.935 15.4905 115.072 15.4609C115.239 15.4246 115.405 15.4067 115.575 15.4067C115.882 15.4067 116.183 15.4662 116.48 15.5857C116.66 15.6581 116.824 15.7527 116.974 15.8691C117.072 15.9445 117.163 16.0289 117.248 16.1227C117.395 16.2734 117.52 16.4506 117.624 16.6543C117.677 16.7557 117.726 16.8636 117.768 16.978C117.909 17.3228 117.98 17.7274 117.98 18.1915C117.98 18.4485 117.958 18.6871 117.915 18.9073C117.879 19.0851 117.83 19.251 117.768 19.405C117.641 19.7496 117.467 20.0414 117.248 20.2802C117.147 20.3862 117.036 20.4804 116.915 20.5629C116.781 20.656 116.637 20.7342 116.48 20.7973ZM117.536 13.3976C116.935 13.1324 116.281 12.9998 115.575 12.9998C114.869 12.9998 114.209 13.1324 113.592 13.3976C112.99 13.6495 112.464 14.0076 112.017 14.4717C111.794 14.7018 111.595 14.9563 111.419 15.2348C111.249 15.5019 111.102 15.7912 110.977 16.1028C110.732 16.7394 110.611 17.4356 110.611 18.1915C110.611 18.9474 110.732 19.6436 110.977 20.2802C111.232 20.9035 111.579 21.4472 112.017 21.9113C112.464 22.3754 112.99 22.7401 113.592 23.0053C114.209 23.2572 114.869 23.3832 115.575 23.3832C116.281 23.3832 116.935 23.2572 117.536 23.0053C118.154 22.7401 118.68 22.3754 119.114 21.9113C119.565 21.4472 119.912 20.9035 120.154 20.2802C120.412 19.6436 120.539 18.9474 120.539 18.1915C120.539 17.4356 120.412 16.7394 120.154 16.1028C119.912 15.4662 119.565 14.9225 119.114 14.4717C118.68 14.0076 118.154 13.6495 117.536 13.3976ZM121.98 23.0849H124.542V17.4554C124.542 17.1706 124.578 16.909 124.653 16.6706C124.732 16.4316 124.849 16.2158 125.003 16.0232C125.31 15.6254 125.745 15.4265 126.31 15.4265C126.928 15.4265 127.369 15.6121 127.637 15.9835C127.784 16.1776 127.892 16.3969 127.964 16.6417C128.029 16.8653 128.062 17.11 128.062 17.3758V23.0849H130.62V16.9185C130.62 16.3879 130.552 15.8841 130.408 15.4067C130.281 14.9293 130.075 14.5181 129.794 14.1733C129.513 13.8285 129.153 13.5566 128.715 13.3577C128.532 13.265 128.33 13.1926 128.114 13.1404C127.833 13.073 127.529 13.0395 127.196 13.0395C126.683 13.0395 126.17 13.1588 125.657 13.3976C125.402 13.5192 125.173 13.6755 124.97 13.8661C124.778 14.0494 124.608 14.2646 124.464 14.5114V13.2981H121.98V23.0849Z" fill="#2858D1"/>
<path d="M147.576 8.006H145.329L138 23.105H140.247L147.576 8.006Z" fill="#AEB7CC"/>
<path d="M156.251 14.957V10.337H158.876C160.472 10.337 161.438 11.24 161.438 12.668C161.438 14.075 160.472 14.957 158.876 14.957H156.251ZM159.254 17.183C162.11 17.183 164 15.272 164 12.647C164 10.043 162.11 8.111 159.254 8.111H153.731V23H156.251V17.183H159.254Z" fill="#AEB7CC"/>
<path d="M171.452 12.71C171.347 12.689 171.095 12.647 170.801 12.647C169.457 12.647 168.323 13.298 167.84 14.411V12.773H165.467V23H167.903V18.128C167.903 16.217 168.764 15.125 170.654 15.125C170.906 15.125 171.179 15.146 171.452 15.188V12.71Z" fill="#AEB7CC"/>
<path d="M177.457 21.131C175.966 21.131 174.601 19.997 174.601 17.876C174.601 15.755 175.966 14.663 177.457 14.663C178.969 14.663 180.313 15.755 180.313 17.876C180.313 20.018 178.969 21.131 177.457 21.131ZM177.457 12.458C174.412 12.458 172.165 14.747 172.165 17.876C172.165 21.026 174.412 23.315 177.457 23.315C180.523 23.315 182.77 21.026 182.77 17.876C182.77 14.747 180.523 12.458 177.457 12.458Z" fill="#AEB7CC"/>
<path d="M186.342 17.855C186.342 15.902 187.518 14.663 189.114 14.663C190.71 14.663 191.802 15.881 191.802 17.834C191.802 19.787 190.689 21.11 189.093 21.11C187.434 21.11 186.342 19.808 186.342 17.855ZM194.154 7.796H191.781V13.97C191.466 13.319 190.563 12.5 188.778 12.5C185.901 12.5 183.906 14.915 183.906 17.855C183.906 20.942 185.88 23.252 188.82 23.252C190.269 23.252 191.34 22.538 191.823 21.677C191.823 22.097 191.886 22.769 191.928 23H194.259C194.238 22.832 194.154 22.055 194.154 21.131V7.796Z" fill="#AEB7CC"/>
<path d="M203.513 21.866C203.513 22.286 203.555 22.769 203.597 23H205.928C205.886 22.622 205.823 21.971 205.823 21.131V12.773H203.387V18.821C203.387 20.165 202.652 21.11 201.245 21.11C199.775 21.11 199.187 20.039 199.187 18.779V12.773H196.751V19.22C196.751 21.488 198.179 23.294 200.615 23.294C201.812 23.294 203.009 22.79 203.513 21.866Z" fill="#AEB7CC"/>
<path d="M212.946 14.705C214.5 14.705 215.193 15.713 215.424 16.616L217.608 15.818C217.188 14.18 215.676 12.458 212.925 12.458C209.985 12.458 207.696 14.726 207.696 17.876C207.696 20.984 209.985 23.315 212.988 23.315C215.676 23.315 217.209 21.572 217.692 19.976L215.55 19.199C215.319 19.976 214.584 21.089 212.988 21.089C211.455 21.089 210.132 19.934 210.132 17.876C210.132 15.818 211.455 14.705 212.946 14.705Z" fill="#AEB7CC"/>
<path d="M222.523 9.644H220.318V11.177C220.318 12.08 219.835 12.773 218.743 12.773H218.218V14.936H220.108V20.081C220.108 21.992 221.284 23.126 223.174 23.126C224.056 23.126 224.518 22.958 224.665 22.895V20.879C224.56 20.9 224.161 20.963 223.825 20.963C222.922 20.963 222.523 20.585 222.523 19.682V14.936H224.644V12.773H222.523V9.644Z" fill="#AEB7CC"/>
<path d="M237.061 23.315C240.19 23.315 242.626 21.404 242.626 17.813V8.111H240.106V17.666C240.106 19.766 238.972 20.921 237.061 20.921C235.171 20.921 234.016 19.766 234.016 17.666V8.111H231.517V17.813C231.517 21.404 233.953 23.315 237.061 23.315Z" fill="#AEB7CC"/>
<path d="M247.702 26.99V21.845C248.227 22.622 249.34 23.252 250.81 23.252C253.75 23.252 255.619 20.942 255.619 17.876C255.619 14.852 253.918 12.542 250.894 12.542C249.319 12.542 248.143 13.277 247.639 14.159V12.773H245.287V26.99H247.702ZM253.183 17.876C253.183 19.829 252.049 21.089 250.432 21.089C248.836 21.089 247.681 19.829 247.681 17.876C247.681 15.965 248.836 14.705 250.432 14.705C252.07 14.705 253.183 15.965 253.183 17.876Z" fill="#AEB7CC"/>
<path d="M259.179 17.855C259.179 15.902 260.355 14.663 261.951 14.663C263.547 14.663 264.639 15.881 264.639 17.834C264.639 19.787 263.526 21.11 261.93 21.11C260.271 21.11 259.179 19.808 259.179 17.855ZM266.991 7.796H264.618V13.97C264.303 13.319 263.4 12.5 261.615 12.5C258.738 12.5 256.743 14.915 256.743 17.855C256.743 20.942 258.717 23.252 261.657 23.252C263.106 23.252 264.177 22.538 264.66 21.677C264.66 22.097 264.723 22.769 264.765 23H267.096C267.075 22.832 266.991 22.055 266.991 21.131V7.796Z" fill="#AEB7CC"/>
<path d="M269.083 20.228C269.083 21.845 270.406 23.315 272.548 23.315C274.207 23.315 275.215 22.475 275.698 21.698C275.698 22.517 275.782 22.937 275.803 23H278.071C278.05 22.895 277.945 22.286 277.945 21.362V16.28C277.945 14.243 276.748 12.458 273.598 12.458C271.078 12.458 269.482 14.033 269.293 15.797L271.519 16.301C271.624 15.272 272.338 14.453 273.619 14.453C274.963 14.453 275.551 15.146 275.551 16.007C275.551 16.364 275.383 16.658 274.795 16.742L272.17 17.141C270.427 17.393 269.083 18.401 269.083 20.228ZM273.01 21.404C272.044 21.404 271.519 20.774 271.519 20.081C271.519 19.241 272.128 18.821 272.884 18.695L275.551 18.296V18.758C275.551 20.753 274.375 21.404 273.01 21.404Z" fill="#AEB7CC"/>
<path d="M283.515 9.644H281.31V11.177C281.31 12.08 280.827 12.773 279.735 12.773H279.21V14.936H281.1V20.081C281.1 21.992 282.276 23.126 284.166 23.126C285.048 23.126 285.51 22.958 285.657 22.895V20.879C285.552 20.9 285.153 20.963 284.817 20.963C283.914 20.963 283.515 20.585 283.515 19.682V14.936H285.636V12.773H283.515V9.644Z" fill="#AEB7CC"/>
<path d="M289.318 16.763C289.402 15.671 290.284 14.495 291.817 14.495C293.497 14.495 294.295 15.566 294.337 16.763H289.318ZM294.61 19.43C294.274 20.438 293.518 21.215 292.048 21.215C290.536 21.215 289.318 20.102 289.255 18.548H296.731C296.752 18.506 296.794 18.17 296.794 17.771C296.794 14.537 294.946 12.458 291.796 12.458C289.213 12.458 286.819 14.6 286.819 17.834C286.819 21.299 289.276 23.315 292.048 23.315C294.505 23.315 296.122 21.866 296.668 20.081L294.61 19.43Z" fill="#AEB7CC"/>
</svg>
