<svg width="254" height="32" viewBox="0 0 254 32" fill="none" xmlns="http://www.w3.org/2000/svg">
<rect width="254" height="32" fill="white"/>
<path fill-rule="evenodd" clip-rule="evenodd" d="M27.3137 27.3137C21.0653 33.5621 10.9347 33.5621 4.68629 27.3137C-1.5621 21.0653 -1.5621 10.9347 4.68629 4.68629C10.9347 -1.5621 21.0653 -1.5621 27.3137 4.68629C33.5621 10.9347 33.5621 21.0653 27.3137 27.3137ZM15.6464 11.0503L20.2426 15.6464L16.3536 19.5355L11.7574 14.9393L6.03386 20.6628C4.1279 16.5884 4.85722 11.5864 8.22183 8.22183C12.5176 3.92606 19.4824 3.92606 23.7782 8.22183C28.0739 12.5176 28.0739 19.4824 23.7782 23.7782C19.7813 27.7751 13.4738 28.0531 9.15538 24.6124L7.37832 26.3894C12.682 30.8012 20.5719 30.52 25.5459 25.5459C30.818 20.2739 30.818 11.7261 25.5459 6.45406C20.2739 1.18198 11.7261 1.18198 6.45406 6.45406C1.48 11.4281 1.19883 19.318 5.61055 24.6217L11.7574 18.4749L15.6464 22.364C16.037 22.7545 16.6701 22.7545 17.0607 22.364L23.0711 16.3536C23.4616 15.963 23.4616 15.3299 23.0711 14.9393L17.4142 9.28249L18.3224 8.37434C18.3974 8.29932 18.4395 8.19758 18.4395 8.0915C18.4395 7.87058 18.2604 7.6915 18.0395 7.6915H14.4555C14.2345 7.6915 14.0555 7.87058 14.0555 8.0915V11.6756C14.0555 11.7816 14.0976 11.8834 14.1726 11.9584C14.3288 12.1146 14.5821 12.1146 14.7383 11.9584L15.6464 11.0503Z" fill="#2858D1"/>
<path fill-rule="evenodd" clip-rule="evenodd" d="M45.7187 14.8695C45.3462 15.2276 44.8266 15.4067 44.16 15.4067H42.062V11.3684H44.16C44.8266 11.3684 45.3462 11.5475 45.7187 11.9056C46.1043 12.2637 46.2971 12.761 46.2971 13.3976C46.2971 14.0076 46.1043 14.4983 45.7187 14.8695ZM42.0424 23.0849V17.7736H44.4867C45.1534 17.7736 45.7645 17.6676 46.3167 17.4554C46.8657 17.2299 47.3428 16.925 47.7382 16.5405C48.1369 16.1558 48.4376 15.6917 48.6434 15.148C48.8624 14.6043 48.9702 14.0141 48.9702 13.3775C48.9702 12.7411 48.8624 12.1575 48.6434 11.6271C48.4376 11.0834 48.1369 10.6193 47.7382 10.2348C47.3428 9.83677 46.8657 9.53187 46.3167 9.31967C46.0586 9.21388 45.7873 9.13301 45.503 9.07685C45.1795 9.01329 44.8397 8.98162 44.4867 8.98162H39.3889V23.0849H42.0424ZM50.2872 13.2981V23.0849H52.8459V13.2981H50.2872ZM50.1695 9.29011C50.0421 9.5285 49.98 9.79686 49.98 10.0954C49.98 10.5331 50.1336 10.9111 50.4407 11.2293C50.7479 11.5475 51.1205 11.7067 51.5583 11.7067C52.006 11.7067 52.3786 11.5475 52.6727 11.2293C52.9799 10.9111 53.1367 10.5331 53.1367 10.0954C53.1367 9.63132 52.9799 9.24007 52.6727 8.92187C52.5289 8.76519 52.3655 8.64695 52.1825 8.56735C51.993 8.48542 51.7871 8.44446 51.5583 8.44446C51.2937 8.44446 51.0551 8.50189 50.8394 8.61697C50.6956 8.6934 50.5617 8.79496 50.4407 8.92187C50.3296 9.03525 50.2414 9.15814 50.1695 9.29011ZM53.8752 13.2981L57.2411 18.1717L53.8752 23.0849H56.7607L56.8751 22.8917L57.1463 22.4683C57.3261 22.1898 57.5156 21.898 57.7215 21.5929L58.2999 20.6978L58.7051 20.0813L60.6854 23.0849H63.6886L60.2606 18.0921L63.5709 13.2981H60.6658L58.7999 16.2023C58.7214 16.0697 58.594 15.8708 58.4143 15.6056L57.8555 14.7502L57.2999 13.9147C57.1202 13.6362 56.9895 13.4307 56.9143 13.2981H53.8752ZM70.2602 16.3813C70.3517 16.6068 70.4007 16.8389 70.4138 17.0775H66.1819C66.195 16.852 66.2473 16.6267 66.3355 16.4012C66.4401 16.1757 66.5806 15.9702 66.7603 15.7846C66.9401 15.5988 67.1557 15.4464 67.4139 15.3271C67.6688 15.2078 67.9662 15.148 68.2995 15.148C68.6589 15.148 68.9661 15.2078 69.221 15.3271C69.4922 15.4331 69.7079 15.579 69.8778 15.7646C70.0543 15.9371 70.185 16.1425 70.2602 16.3813ZM72.2438 21.4934C72.4987 21.1089 72.6849 20.7044 72.7993 20.2802L70.6654 19.6237C70.5118 20.0612 70.2602 20.4193 69.9138 20.6978C69.5805 20.9763 69.1132 21.1155 68.5086 21.1155C68.1884 21.1155 67.8877 21.0625 67.6067 20.9565C67.4498 20.8906 67.3028 20.8127 67.1688 20.723C67.0577 20.6497 66.9531 20.5684 66.8551 20.4791C66.6492 20.2802 66.476 20.0481 66.3355 19.7827C66.2081 19.5044 66.1362 19.2059 66.1231 18.8877H72.8973L72.9169 18.6092C72.93 18.4369 72.9365 18.2578 72.9365 18.0722C72.9365 17.3391 72.8483 16.679 72.6719 16.0921C72.466 15.4151 72.1425 14.8353 71.7046 14.3524C71.3092 13.9181 70.8353 13.5883 70.2896 13.3632C69.7014 13.121 69.0249 12.9998 68.2603 12.9998C67.6557 12.9998 67.074 13.1256 66.5087 13.3775C65.9434 13.6163 65.4434 13.9611 65.0088 14.4119C64.5839 14.8497 64.2441 15.3868 63.9892 16.0232C63.731 16.6598 63.6036 17.3693 63.6036 18.1516C63.6036 18.9738 63.731 19.7099 63.9892 20.3598C64.2572 21.0095 64.6166 21.5597 65.0676 22.0108C65.5153 22.4616 66.0349 22.8064 66.6231 23.0452C67.2146 23.2705 67.8355 23.3832 68.4923 23.3832C69.0674 23.3832 69.5935 23.2971 70.0674 23.1246C70.5576 22.9656 70.9791 22.7466 71.3386 22.4683C71.698 22.1898 71.9987 21.8649 72.2438 21.4934ZM74.3744 8.68306V23.0849H76.9331V8.68306H74.3744ZM88.0143 23.3815C88.1941 23.3959 88.3771 23.4031 88.5633 23.4031C89.2953 23.4031 89.9816 23.2903 90.6221 23.065C91.2626 22.8395 91.8148 22.5015 92.2756 22.0505C92.7527 21.5997 93.122 21.0426 93.3932 20.3796C93.586 19.9214 93.7135 19.416 93.7756 18.863C93.8017 18.6155 93.8148 18.3585 93.8148 18.0921V8.98162H91.1613V17.8931C91.1613 18.8214 90.9293 19.5243 90.4685 20.0017C90.2169 20.2641 89.9097 20.4544 89.5502 20.5724C89.2561 20.6693 88.9261 20.7177 88.5633 20.7177C87.7693 20.7177 87.1386 20.4791 86.6778 20.0017C86.217 19.5243 85.985 18.8214 85.985 17.8931V8.98162H83.3283V18.0921C83.3283 18.954 83.4655 19.7164 83.7335 20.3796C84.0145 21.0426 84.387 21.5997 84.8511 22.0505C85.0962 22.2844 85.3641 22.488 85.6517 22.6611C85.9197 22.8218 86.204 22.9565 86.5046 23.065C86.9817 23.2333 87.4882 23.3389 88.0143 23.3815ZM95.9421 23.0849H98.5008V17.4554C98.5008 16.8853 98.6544 16.4079 98.9616 16.0232C99.2688 15.6254 99.7067 15.4265 100.272 15.4265C100.886 15.4265 101.328 15.6121 101.599 15.9835C101.726 16.1533 101.827 16.3423 101.896 16.5509C101.981 16.7986 102.02 17.0735 102.02 17.3758V23.0849H104.582V16.9185C104.582 16.3879 104.51 15.8841 104.37 15.4067C104.242 14.9293 104.037 14.5181 103.752 14.1733C103.622 14.011 103.471 13.8649 103.305 13.7348C103.115 13.5887 102.906 13.463 102.677 13.3577C102.412 13.2251 102.115 13.1339 101.785 13.084C101.586 13.0543 101.377 13.0395 101.154 13.0395C100.641 13.0395 100.128 13.1588 99.6152 13.3976C99.1838 13.6032 98.8309 13.9075 98.5531 14.31L98.4224 14.5114V13.2981H95.9421V23.0849ZM106.602 13.2981V23.0849H109.161V13.2981H106.602ZM106.755 8.92187C106.448 9.24007 106.291 9.63132 106.291 10.0954C106.291 10.5331 106.448 10.9111 106.755 11.2293C107.063 11.5475 107.435 11.7067 107.87 11.7067C108.321 11.7067 108.693 11.5475 108.987 11.2293C109.2 11.0086 109.34 10.7593 109.406 10.481C109.435 10.3581 109.448 10.2295 109.448 10.0954C109.448 9.63132 109.295 9.24007 108.987 8.92187C108.693 8.60366 108.321 8.44446 107.87 8.44446C107.435 8.44446 107.063 8.60366 106.755 8.92187ZM116.48 20.7973C116.183 20.9166 115.882 20.9763 115.575 20.9763C115.268 20.9763 114.964 20.9166 114.67 20.7973C114.376 20.678 114.118 20.5055 113.902 20.2802C113.683 20.0414 113.503 19.7496 113.363 19.405C113.232 19.0602 113.17 18.6556 113.17 18.1915C113.17 17.7274 113.232 17.3228 113.363 16.978C113.503 16.6332 113.683 16.3482 113.902 16.1227C114.118 15.8841 114.376 15.705 114.67 15.5857C114.801 15.5321 114.935 15.4905 115.072 15.4609C115.239 15.4246 115.405 15.4067 115.575 15.4067C115.882 15.4067 116.183 15.4662 116.48 15.5857C116.66 15.6581 116.824 15.7527 116.974 15.8691C117.072 15.9445 117.163 16.0289 117.248 16.1227C117.395 16.2734 117.52 16.4506 117.624 16.6543C117.677 16.7557 117.726 16.8636 117.768 16.978C117.909 17.3228 117.98 17.7274 117.98 18.1915C117.98 18.4485 117.958 18.6871 117.915 18.9073C117.879 19.0851 117.83 19.251 117.768 19.405C117.641 19.7496 117.467 20.0414 117.248 20.2802C117.147 20.3862 117.036 20.4804 116.915 20.5629C116.781 20.656 116.637 20.7342 116.48 20.7973ZM117.536 13.3976C116.935 13.1324 116.281 12.9998 115.575 12.9998C114.869 12.9998 114.209 13.1324 113.592 13.3976C112.99 13.6495 112.464 14.0076 112.017 14.4717C111.794 14.7018 111.595 14.9563 111.419 15.2348C111.249 15.5019 111.102 15.7912 110.977 16.1028C110.732 16.7394 110.611 17.4356 110.611 18.1915C110.611 18.9474 110.732 19.6436 110.977 20.2802C111.232 20.9035 111.579 21.4472 112.017 21.9113C112.464 22.3754 112.99 22.7401 113.592 23.0053C114.209 23.2572 114.869 23.3832 115.575 23.3832C116.281 23.3832 116.935 23.2572 117.536 23.0053C118.154 22.7401 118.68 22.3754 119.114 21.9113C119.565 21.4472 119.912 20.9035 120.154 20.2802C120.412 19.6436 120.539 18.9474 120.539 18.1915C120.539 17.4356 120.412 16.7394 120.154 16.1028C119.912 15.4662 119.565 14.9225 119.114 14.4717C118.68 14.0076 118.154 13.6495 117.536 13.3976ZM121.98 23.0849H124.542V17.4554C124.542 17.1706 124.578 16.909 124.653 16.6706C124.732 16.4316 124.849 16.2158 125.003 16.0232C125.31 15.6254 125.745 15.4265 126.31 15.4265C126.928 15.4265 127.369 15.6121 127.637 15.9835C127.784 16.1776 127.892 16.3969 127.964 16.6417C128.029 16.8653 128.062 17.11 128.062 17.3758V23.0849H130.62V16.9185C130.62 16.3879 130.552 15.8841 130.408 15.4067C130.281 14.9293 130.075 14.5181 129.794 14.1733C129.513 13.8285 129.153 13.5566 128.715 13.3577C128.532 13.265 128.33 13.1926 128.114 13.1404C127.833 13.073 127.529 13.0395 127.196 13.0395C126.683 13.0395 126.17 13.1588 125.657 13.3976C125.402 13.5192 125.173 13.6755 124.97 13.8661C124.778 14.0494 124.608 14.2646 124.464 14.5114V13.2981H121.98V23.0849Z" fill="#2858D1"/>
<path d="M147.576 8.006H145.329L138 23.105H140.247L147.576 8.006Z" fill="#AEB7CC"/>
<path d="M166.226 23V8.111H163.706V18.674L156.944 8.111H153.731V23H156.251V11.723L163.601 23H166.226Z" fill="#AEB7CC"/>
<path d="M170.819 16.763C170.903 15.671 171.785 14.495 173.318 14.495C174.998 14.495 175.796 15.566 175.838 16.763H170.819ZM176.111 19.43C175.775 20.438 175.019 21.215 173.549 21.215C172.037 21.215 170.819 20.102 170.756 18.548H178.232C178.253 18.506 178.295 18.17 178.295 17.771C178.295 14.537 176.447 12.458 173.297 12.458C170.714 12.458 168.32 14.6 168.32 17.834C168.32 21.299 170.777 23.315 173.549 23.315C176.006 23.315 177.623 21.866 178.169 20.081L176.111 19.43Z" fill="#AEB7CC"/>
<path d="M185.855 12.773L183.44 19.85L181.361 12.773H178.757L182.075 23H184.574L187.052 15.65L189.593 23H192.029L195.305 12.773H192.827L190.79 19.85L188.375 12.773H185.855Z" fill="#AEB7CC"/>
<path d="M195.84 20.228C195.966 21.383 197.1 23.315 200.061 23.315C202.665 23.315 203.925 21.593 203.925 20.039C203.925 18.527 202.917 17.351 200.985 16.931L199.431 16.616C198.801 16.49 198.402 16.091 198.402 15.545C198.402 14.915 199.011 14.369 199.872 14.369C201.237 14.369 201.678 15.314 201.762 15.902L203.82 15.314C203.652 14.306 202.728 12.458 199.872 12.458C197.751 12.458 196.113 13.97 196.113 15.755C196.113 17.162 197.058 18.338 198.864 18.737L200.376 19.073C201.195 19.241 201.573 19.661 201.573 20.207C201.573 20.837 201.048 21.383 200.04 21.383C198.738 21.383 198.045 20.564 197.961 19.64L195.84 20.228Z" fill="#AEB7CC"/>
<path d="M208.356 23V7.796H205.92V23H208.356Z" fill="#AEB7CC"/>
<path d="M212.779 16.763C212.863 15.671 213.745 14.495 215.278 14.495C216.958 14.495 217.756 15.566 217.798 16.763H212.779ZM218.071 19.43C217.735 20.438 216.979 21.215 215.509 21.215C213.997 21.215 212.779 20.102 212.716 18.548H220.192C220.213 18.506 220.255 18.17 220.255 17.771C220.255 14.537 218.407 12.458 215.257 12.458C212.674 12.458 210.28 14.6 210.28 17.834C210.28 21.299 212.737 23.315 215.509 23.315C217.966 23.315 219.583 21.866 220.129 20.081L218.071 19.43Z" fill="#AEB7CC"/>
<path d="M225.25 9.644H223.045V11.177C223.045 12.08 222.562 12.773 221.47 12.773H220.945V14.936H222.835V20.081C222.835 21.992 224.011 23.126 225.901 23.126C226.783 23.126 227.245 22.958 227.392 22.895V20.879C227.287 20.9 226.888 20.963 226.552 20.963C225.649 20.963 225.25 20.585 225.25 19.682V14.936H227.371V12.773H225.25V9.644Z" fill="#AEB7CC"/>
<path d="M232.5 9.644H230.295V11.177C230.295 12.08 229.812 12.773 228.72 12.773H228.195V14.936H230.085V20.081C230.085 21.992 231.261 23.126 233.151 23.126C234.033 23.126 234.495 22.958 234.642 22.895V20.879C234.537 20.9 234.138 20.963 233.802 20.963C232.899 20.963 232.5 20.585 232.5 19.682V14.936H234.621V12.773H232.5V9.644Z" fill="#AEB7CC"/>
<path d="M238.303 16.763C238.387 15.671 239.269 14.495 240.802 14.495C242.482 14.495 243.28 15.566 243.322 16.763H238.303ZM243.595 19.43C243.259 20.438 242.503 21.215 241.033 21.215C239.521 21.215 238.303 20.102 238.24 18.548H245.716C245.737 18.506 245.779 18.17 245.779 17.771C245.779 14.537 243.931 12.458 240.781 12.458C238.198 12.458 235.804 14.6 235.804 17.834C235.804 21.299 238.261 23.315 241.033 23.315C243.49 23.315 245.107 21.866 245.653 20.081L243.595 19.43Z" fill="#AEB7CC"/>
<path d="M253.671 12.71C253.566 12.689 253.314 12.647 253.02 12.647C251.676 12.647 250.542 13.298 250.059 14.411V12.773H247.686V23H250.122V18.128C250.122 16.217 250.983 15.125 252.873 15.125C253.125 15.125 253.398 15.146 253.671 15.188V12.71Z" fill="#AEB7CC"/>
</svg>
