<svg width="87" height="75" viewBox="0 0 87 75" fill="none" xmlns="http://www.w3.org/2000/svg">
<g clip-path="url(#clip0)">
<path d="M84 39.9963C83.9994 34.0272 82.663 28.1339 80.0886 22.7486C77.5142 17.3632 73.7672 12.6222 69.1223 8.87332C64.4774 5.12441 59.0523 2.46258 53.2449 1.083C47.4374 -0.296573 41.3948 -0.358924 35.5602 0.900523C29.7255 2.15997 24.2466 4.70928 19.5254 8.36155C14.8041 12.0138 10.96 16.6764 8.27506 22.0075C5.59011 27.3386 4.13233 33.2031 4.0086 39.1709C3.88486 45.1386 5.09832 51.0584 7.56 56.4963H80.44C82.7913 51.3136 84.0052 45.6874 84 39.9963V39.9963Z" fill="#EAEFF9"/>
<path d="M4.5 56.4962H82.5" stroke="#2858D1" stroke-linecap="round" stroke-linejoin="round"/>
<path d="M0 56.4962H2.5" stroke="#2858D1" stroke-linecap="round" stroke-linejoin="round"/>
<path d="M84.5 56.4962H87" stroke="#2858D1" stroke-linecap="round" stroke-linejoin="round"/>
<path d="M68.43 65.8962C68.43 66.8962 57.43 67.7962 43.76 67.7962C30.09 67.7962 19.1 66.9462 19.1 65.8962C19.1 64.8462 30.1 63.9962 43.76 63.9962C57.42 63.9962 68.43 64.8962 68.43 65.8962Z" fill="#EAEFF9"/>
<path d="M70.96 63.3663C70.9613 63.5326 70.9297 63.6975 70.867 63.8515C70.8043 64.0055 70.7117 64.1456 70.5945 64.2637C70.4774 64.3817 70.3381 64.4755 70.1845 64.5394C70.031 64.6033 69.8663 64.6363 69.7 64.6363H37.55C37.2132 64.6363 36.8902 64.5025 36.652 64.2643C36.4138 64.0261 36.28 63.7031 36.28 63.3663V19.0963C36.28 18.7594 36.4138 18.4364 36.652 18.1982C36.8902 17.9601 37.2132 17.8263 37.55 17.8263H64.11C64.2771 17.8252 64.4427 17.8574 64.5972 17.9209C64.7517 17.9844 64.892 18.078 65.01 18.1963L70.59 23.7763C70.7083 23.8943 70.8019 24.0346 70.8654 24.1891C70.9289 24.3436 70.9611 24.5092 70.96 24.6763V63.3663Z" fill="white"/>
<path d="M70.96 63.3663C70.9613 63.5326 70.9297 63.6975 70.867 63.8515C70.8043 64.0055 70.7117 64.1456 70.5945 64.2637C70.4774 64.3817 70.3381 64.4755 70.1845 64.5394C70.031 64.6033 69.8663 64.6363 69.7 64.6363H37.55C37.2132 64.6363 36.8902 64.5025 36.652 64.2643C36.4138 64.0261 36.28 63.7031 36.28 63.3663V19.0963C36.28 18.7594 36.4138 18.4364 36.652 18.1982C36.8902 17.9601 37.2132 17.8263 37.55 17.8263H64.11C64.2771 17.8252 64.4427 17.8574 64.5972 17.9209C64.7517 17.9844 64.892 18.078 65.01 18.1963L70.59 23.7763C70.7083 23.8943 70.8019 24.0346 70.8654 24.1891C70.9289 24.3436 70.9611 24.5092 70.96 24.6763V63.3663Z" stroke="#2858D1" stroke-linejoin="round"/>
<path d="M61.58 59.5763C65.076 59.5763 67.91 56.7422 67.91 53.2463C67.91 49.7503 65.076 46.9163 61.58 46.9163C58.084 46.9163 55.25 49.7503 55.25 53.2463C55.25 56.7422 58.084 59.5763 61.58 59.5763Z" stroke="#2858D1" stroke-miterlimit="10"/>
<path d="M58.4199 53.2463L60.9499 55.7763L65.0599 51.0363" stroke="#2858D1" stroke-linecap="round" stroke-linejoin="round"/>
<path d="M44.51 33.0062H64.11" stroke="#2858D1" stroke-linecap="round" stroke-linejoin="round"/>
<path d="M46.29 29.2162H54.7" stroke="#2858D1" stroke-linecap="round" stroke-linejoin="round"/>
<path d="M44.51 36.8062H64.11" stroke="#2858D1" stroke-linecap="round" stroke-linejoin="round"/>
<path d="M44.51 40.5963H64.11" stroke="#2858D1" stroke-linecap="round" stroke-linejoin="round"/>
<path d="M64.64 23.0062C64.64 23.1572 64.6698 23.3068 64.7276 23.4463C64.7853 23.5858 64.8701 23.7126 64.9768 23.8194C65.0836 23.9262 65.2104 24.0109 65.3499 24.0687C65.4895 24.1265 65.639 24.1562 65.79 24.1562H70.79C70.7319 24.0147 70.647 23.8856 70.54 23.7762L65.01 18.1962C64.8998 18.095 64.7751 18.0108 64.64 17.9462V23.0062Z" fill="#EAEFF9" stroke="#2858D1" stroke-linejoin="round"/>
<path d="M18.04 51.9862H49.25C50.3109 51.9862 51.3283 52.4076 52.0785 53.1578C52.8286 53.9079 53.25 54.9253 53.25 55.9862V59.8362C53.25 60.1014 53.1447 60.3558 52.9571 60.5433C52.7696 60.7309 52.5153 60.8362 52.25 60.8362H15.04C14.7748 60.8362 14.5205 60.7309 14.3329 60.5433C14.1454 60.3558 14.04 60.1014 14.04 59.8362V55.9862C14.04 54.9253 14.4615 53.9079 15.2116 53.1578C15.9618 52.4076 16.9792 51.9862 18.04 51.9862Z" fill="white"/>
<path d="M39.57 35.5362H27.72C27.4435 35.5319 27.1697 35.4812 26.91 35.3862C27.53 36.6762 29.22 41.1762 29.22 51.9862H38.07C38.07 41.1762 39.76 36.6762 40.38 35.3862C40.1203 35.4812 39.8465 35.5319 39.57 35.5362Z" fill="white"/>
<path d="M50.3499 63.8962C50.2756 64.1266 50.13 64.3273 49.934 64.4693C49.738 64.6113 49.502 64.6873 49.2599 64.6862H18.0299C17.7879 64.6873 17.5518 64.6113 17.3559 64.4693C17.1599 64.3273 17.0142 64.1266 16.9399 63.8962L15.9399 60.8962H51.3599L50.3499 63.8962Z" fill="#2858D1"/>
<path d="M18.04 51.9862H49.25C50.3109 51.9862 51.3283 52.4076 52.0785 53.1578C52.8286 53.9079 53.25 54.9253 53.25 55.9862V59.8362C53.25 60.1014 53.1447 60.3558 52.9571 60.5433C52.7696 60.7309 52.5153 60.8362 52.25 60.8362H15.04C14.7748 60.8362 14.5205 60.7309 14.3329 60.5433C14.1454 60.3558 14.04 60.1014 14.04 59.8362V55.9862C14.04 54.9253 14.4615 53.9079 15.2116 53.1578C15.9618 52.4076 16.9792 51.9862 18.04 51.9862Z" stroke="#2858D1" stroke-linejoin="round"/>
<path d="M39.57 35.5362H27.72C27.4435 35.5319 27.1697 35.4812 26.91 35.3862C27.53 36.6762 29.22 41.1762 29.22 51.9862H38.07C38.07 41.1762 39.76 36.6762 40.38 35.3862C40.1203 35.4812 39.8465 35.5319 39.57 35.5362Z" stroke="#2858D1" stroke-linejoin="round"/>
<path d="M50.3499 63.8962C50.2756 64.1266 50.13 64.3273 49.934 64.4693C49.738 64.6113 49.502 64.6873 49.2599 64.6862H18.0299C17.7879 64.6873 17.5518 64.6113 17.3559 64.4693C17.1599 64.3273 17.0142 64.1266 16.9399 63.8962L15.9399 60.8962H51.3599L50.3499 63.8962Z" stroke="#2858D1" stroke-linejoin="round"/>
<path d="M29.14 48.1862H38.15" stroke="#2858D1" stroke-linejoin="round"/>
<path d="M39.87 25.4163H27.42C26.3155 25.4163 25.42 26.3117 25.42 27.4163V33.5363C25.42 34.6408 26.3155 35.5363 27.42 35.5363H39.87C40.9746 35.5363 41.87 34.6408 41.87 33.5363V27.4163C41.87 26.3117 40.9746 25.4163 39.87 25.4163Z" fill="white"/>
<path d="M39.87 25.4163H27.42C26.3155 25.4163 25.42 26.3117 25.42 27.4163V33.5363C25.42 34.6408 26.3155 35.5363 27.42 35.5363H39.87C40.9746 35.5363 41.87 34.6408 41.87 33.5363V27.4163C41.87 26.3117 40.9746 25.4163 39.87 25.4163Z" stroke="#2858D1" stroke-linejoin="round"/>
</g>
<defs>
<clipPath id="clip0">
<rect width="87" height="75" fill="white"/>
</clipPath>
</defs>
</svg>
