<svg width="87" height="75" viewBox="0 0 87 75" fill="none" xmlns="http://www.w3.org/2000/svg">
<g clip-path="url(#clip0)">
<path d="M83.5 39.9862C83.4979 34.0176 82.1602 28.1251 79.5848 22.7407C77.0095 17.3562 73.2618 12.6164 68.6165 8.86861C63.9712 5.12084 58.546 2.46013 52.7388 1.08156C46.9315 -0.297012 40.8894 -0.35851 35.0553 0.901578C29.2212 2.16167 23.743 4.71139 19.0224 8.36384C14.3018 12.0163 10.4584 16.6789 7.77394 22.0098C5.08951 27.3407 3.63211 33.2047 3.50857 39.1721C3.38503 45.1395 4.5985 51.0588 7.06 56.4963H79.94C82.2903 51.3097 83.5041 45.6805 83.5 39.9862V39.9862Z" fill="#EAEFF9"/>
<path d="M4.5 56.4963H82.5" stroke="#2858D1" stroke-linecap="round" stroke-linejoin="round"/>
<path d="M0 56.4963H2.5" stroke="#2858D1" stroke-linecap="round" stroke-linejoin="round"/>
<path d="M84.5 56.4963H87" stroke="#2858D1" stroke-linecap="round" stroke-linejoin="round"/>
<path d="M35.9399 69.4863C45.8811 69.4863 53.9399 68.8147 53.9399 67.9863C53.9399 67.1578 45.8811 66.4863 35.9399 66.4863C25.9988 66.4863 17.9399 67.1578 17.9399 67.9863C17.9399 68.8147 25.9988 69.4863 35.9399 69.4863Z" fill="#EAEFF9"/>
<path d="M56.9 34.8863C58.4913 34.8863 60.0174 34.2541 61.1426 33.1289C62.2679 32.0037 62.9 30.4776 62.9 28.8863V16.8863C62.9037 15.2408 62.5689 13.6121 61.9164 12.1015C61.2639 10.5908 60.3078 9.23054 59.1073 8.10511C57.9069 6.97968 56.4878 6.11317 54.9382 5.55943C53.3887 5.00569 51.7418 4.77655 50.1 4.88626C47.0095 5.15407 44.1354 6.5835 42.057 8.88642C39.9786 11.1893 38.8505 14.1945 38.9 17.2963V28.8863C38.9 30.4776 39.5321 32.0037 40.6574 33.1289C41.7826 34.2541 43.3087 34.8863 44.9 34.8863H56.9Z" fill="white"/>
<path d="M56.9 34.8863C58.4913 34.8863 60.0174 34.2541 61.1426 33.1289C62.2679 32.0037 62.9 30.4776 62.9 28.8863V16.8863C62.9037 15.2408 62.5689 13.6121 61.9164 12.1015C61.2639 10.5908 60.3078 9.23054 59.1073 8.10511C57.9069 6.97968 56.4878 6.11317 54.9382 5.55943C53.3887 5.00569 51.7418 4.77655 50.1 4.88626C47.0095 5.15407 44.1354 6.5835 42.057 8.88642C39.9786 11.1893 38.8505 14.1945 38.9 17.2963V28.8863C38.9 30.4776 39.5321 32.0037 40.6574 33.1289C41.7826 34.2541 43.3087 34.8863 44.9 34.8863H56.9Z" stroke="#2858D1" stroke-linecap="round" stroke-linejoin="round"/>
<path d="M50.9 33.0862C48.8472 33.0862 46.8145 33.4914 44.9186 34.2785C43.0226 35.0656 41.3007 36.2192 39.8514 37.673C38.4022 39.1269 37.2541 40.8526 36.4731 42.751C35.6921 44.6495 35.2934 46.6834 35.3 48.7362V52.9362C35.3 60.8462 32.49 61.9362 29.38 61.9362H26.9V67.3362H29.38C33.74 67.3362 41.3 63.7063 41.3 56.5363H60.5C60.5 61.0963 57.14 61.9362 54.58 61.9362H52.1V67.3362H54.58C59.5 67.2862 66.5 66.2362 66.5 56.4862V48.7362C66.5079 46.6831 66.1102 44.6485 65.3296 42.7495C64.5491 40.8504 63.4011 39.1243 61.9516 37.6701C60.502 36.2159 58.7796 35.0624 56.883 34.2758C54.9865 33.4892 52.9532 33.0849 50.9 33.0862V33.0862Z" fill="white"/>
<path d="M50.9 33.0862C48.8472 33.0862 46.8145 33.4914 44.9186 34.2785C43.0226 35.0656 41.3007 36.2192 39.8514 37.673C38.4022 39.1269 37.2541 40.8526 36.4731 42.751C35.6921 44.6495 35.2934 46.6834 35.3 48.7362V52.9362C35.3 60.8462 32.49 61.9362 29.38 61.9362H26.9V67.3362H29.38C33.74 67.3362 41.3 63.7063 41.3 56.5363H60.5C60.5 61.0963 57.14 61.9362 54.58 61.9362H52.1V67.3362H54.58C59.5 67.2862 66.5 66.2362 66.5 56.4862V48.7362C66.5079 46.6831 66.1102 44.6485 65.3296 42.7495C64.5491 40.8504 63.4011 39.1243 61.9516 37.6701C60.502 36.2159 58.7796 35.0624 56.883 34.2758C54.9865 33.4892 52.9532 33.0849 50.9 33.0862V33.0862Z" stroke="#2858D1" stroke-linecap="round" stroke-linejoin="round"/>
<path d="M41.3 49.2863V56.4863" stroke="#2858D1" stroke-linecap="round" stroke-linejoin="round"/>
<path d="M60.5 49.2863V56.4863" stroke="#2858D1" stroke-linecap="round" stroke-linejoin="round"/>
<path d="M52.1 66.7363H50.3C49.6635 66.7363 49.0531 66.4834 48.603 66.0333C48.1529 65.5833 47.9 64.9728 47.9 64.3363C47.9 63.6998 48.1529 63.0893 48.603 62.6392C49.0531 62.1891 49.6635 61.9363 50.3 61.9363H52.1V66.7363Z" fill="white" stroke="#2858D1" stroke-linecap="round" stroke-linejoin="round"/>
<path d="M26.9 66.7363H25.1C24.4634 66.7363 23.853 66.4834 23.4029 66.0333C22.9528 65.5833 22.7 64.9728 22.7 64.3363C22.7 63.6998 22.9528 63.0893 23.4029 62.6392C23.853 62.1891 24.4634 61.9363 25.1 61.9363H26.9V66.7363Z" fill="white" stroke="#2858D1" stroke-linecap="round" stroke-linejoin="round"/>
<path d="M50.9 40.8863V56.4863" stroke="#2858D1" stroke-linecap="round" stroke-linejoin="round"/>
<path d="M54.5 33.6863L50.9001 40.8863L47.3 33.6863V30.6863H54.5V33.6863Z" fill="white"/>
<path d="M54.5 33.6863L50.9001 40.8863L47.3 33.6863V30.6863H54.5V33.6863Z" stroke="#2858D1" stroke-linecap="round" stroke-linejoin="round"/>
<path d="M45.28 39.2163C45.3752 39.34 45.498 39.4397 45.6387 39.5074C45.7793 39.5752 45.9339 39.609 46.09 39.6063C46.2452 39.6024 46.3975 39.5625 46.5346 39.4896C46.6717 39.4167 46.79 39.3128 46.88 39.1863L48.68 36.6863C48.8075 36.5141 48.8763 36.3055 48.8763 36.0913C48.8763 35.877 48.8075 35.6685 48.68 35.4963L47.2 33.4963C45.5306 33.8992 43.9392 34.5749 42.49 35.4963L45.28 39.2163Z" fill="white" stroke="#2858D1" stroke-linecap="round" stroke-linejoin="round"/>
<path d="M56.5 39.2163C56.4068 39.3405 56.2861 39.4413 56.1472 39.5107C56.0083 39.5801 55.8552 39.6163 55.7 39.6163C55.5447 39.6163 55.3916 39.5801 55.2528 39.5107C55.1139 39.4413 54.9931 39.3405 54.9 39.2163L53.13 36.7363C53.0025 36.5641 52.9337 36.3555 52.9337 36.1413C52.9337 35.927 53.0025 35.7185 53.13 35.5463L54.61 33.5463C56.2826 33.949 57.8773 34.6247 59.33 35.5463L56.5 39.2163Z" fill="white" stroke="#2858D1" stroke-linecap="round" stroke-linejoin="round"/>
<path d="M61.1 19.8863V17.4863C61.1 17.2063 61.1 16.9263 61.1 16.6563C58.9025 17.9252 56.3277 18.3782 53.829 17.9355C51.3303 17.4928 49.0679 16.1829 47.44 14.2363C47.1061 15.4731 46.3913 16.5734 45.3969 17.3811C44.4025 18.1888 43.179 18.6629 41.9 18.7363C41.496 18.7353 41.0934 18.6883 40.7 18.5963V19.9363C40.2234 19.9389 39.7671 20.1294 39.4301 20.4664C39.0931 20.8034 38.9027 21.2597 38.9 21.7363V22.3363C38.9027 22.8128 39.0931 23.2692 39.4301 23.6062C39.7671 23.9432 40.2234 24.1336 40.7 24.1363H40.87C41.2863 26.4953 42.5203 28.6324 44.3554 30.1721C46.1906 31.7118 48.5095 32.5557 50.905 32.5557C53.3005 32.5557 55.6195 31.7118 57.4546 30.1721C59.2898 28.6324 60.5238 26.4953 60.94 24.1363H61.1C61.5774 24.1363 62.0353 23.9466 62.3728 23.6091C62.7104 23.2715 62.9 22.8137 62.9 22.3363V21.7363C62.9067 21.4957 62.8651 21.2563 62.7776 21.0321C62.6902 20.8079 62.5586 20.6035 62.3908 20.431C62.223 20.2585 62.0223 20.1215 61.8006 20.0279C61.5789 19.9343 61.3407 19.8862 61.1 19.8863V19.8863Z" fill="white" stroke="#2858D1" stroke-linecap="round" stroke-linejoin="round"/>
<path d="M46.1 24.0863C46.1 24.3236 46.0296 24.5556 45.8977 24.753C45.7659 24.9503 45.5784 25.1041 45.3592 25.1949C45.1399 25.2858 44.8986 25.3095 44.6658 25.2632C44.4331 25.2169 44.2192 25.1026 44.0514 24.9348C43.8836 24.767 43.7693 24.5532 43.723 24.3204C43.6767 24.0876 43.7005 23.8463 43.7913 23.6271C43.8821 23.4078 44.0359 23.2204 44.2333 23.0885C44.4306 22.9567 44.6626 22.8863 44.9 22.8863C45.2182 22.8863 45.5234 23.0127 45.7485 23.2378C45.9735 23.4628 46.1 23.768 46.1 24.0863V24.0863Z" fill="#EAEFF9"/>
<path d="M58.1 24.0863C58.1 24.3236 58.0296 24.5556 57.8977 24.753C57.7659 24.9503 57.5784 25.1041 57.3592 25.1949C57.1399 25.2858 56.8986 25.3095 56.6658 25.2632C56.4331 25.2169 56.2192 25.1026 56.0514 24.9348C55.8836 24.767 55.7693 24.5532 55.723 24.3204C55.6767 24.0876 55.7005 23.8463 55.7913 23.6271C55.8821 23.4078 56.0359 23.2204 56.2333 23.0885C56.4306 22.9567 56.6626 22.8863 56.9 22.8863C57.2182 22.8863 57.5234 23.0127 57.7485 23.2378C57.9735 23.4628 58.1 23.768 58.1 24.0863V24.0863Z" fill="#EAEFF9"/>
<path d="M47.9 26.4863C48.7089 27.2566 49.783 27.6863 50.9 27.6863C52.017 27.6863 53.0912 27.2566 53.9 26.4863" stroke="#2858D1" stroke-linecap="round" stroke-linejoin="round"/>
<path d="M56.3 21.0863C56.1749 20.792 55.966 20.5411 55.6993 20.3646C55.4325 20.1882 55.1198 20.0942 54.8 20.0942C54.4803 20.0942 54.1676 20.1882 53.9008 20.3646C53.6341 20.5411 53.4252 20.792 53.3 21.0863" stroke="#2858D1" stroke-linecap="round" stroke-linejoin="round"/>
<path d="M48.5 20.8863C48.3749 20.592 48.1659 20.341 47.8992 20.1646C47.6325 19.9882 47.3198 19.8942 47 19.8942C46.6802 19.8942 46.3675 19.9882 46.1008 20.1646C45.8341 20.341 45.6251 20.592 45.5 20.8863" stroke="#2858D1" stroke-linecap="round" stroke-linejoin="round"/>
<path d="M36.5 24.0862V25.8862C36.5 26.5954 36.6397 27.2976 36.911 27.9527C37.1824 28.6079 37.5802 29.2032 38.0816 29.7046C38.5831 30.2061 39.1784 30.6038 39.8335 30.8752C40.4887 31.1466 41.1909 31.2862 41.9 31.2862H44.9" stroke="#2858D1" stroke-linecap="round" stroke-linejoin="round"/>
<path d="M37.7 19.2863H40.1V25.2863H37.7C37.3817 25.2863 37.0765 25.1598 36.8515 24.9348C36.6264 24.7097 36.5 24.4045 36.5 24.0863V20.4863C36.5 20.168 36.6264 19.8628 36.8515 19.6377C37.0765 19.4127 37.3817 19.2863 37.7 19.2863V19.2863Z" fill="white" stroke="#2858D1" stroke-linecap="round" stroke-linejoin="round"/>
<path d="M38.9 24.0863C38.9 24.4045 39.0265 24.7097 39.2515 24.9348C39.4765 25.1598 39.7818 25.2863 40.1 25.2863C40.4183 25.2863 40.7235 25.1598 40.9486 24.9348C41.1736 24.7097 41.3 24.4045 41.3 24.0863V20.4863C41.3 20.168 41.1736 19.8628 40.9486 19.6377C40.7235 19.4127 40.4183 19.2863 40.1 19.2863C39.7818 19.2863 39.4765 19.4127 39.2515 19.6377C39.0265 19.8628 38.9 20.168 38.9 20.4863V24.0863Z" fill="#EAEFF9" stroke="#2858D1" stroke-linecap="round" stroke-linejoin="round"/>
<path d="M64.1 25.2863H61.7V19.2863H64.1C64.4183 19.2863 64.7235 19.4127 64.9486 19.6377C65.1736 19.8628 65.3 20.168 65.3 20.4863V24.0863C65.3 24.4045 65.1736 24.7097 64.9486 24.9348C64.7235 25.1598 64.4183 25.2863 64.1 25.2863V25.2863Z" fill="white" stroke="#2858D1" stroke-linecap="round" stroke-linejoin="round"/>
<path d="M62.9 24.0863C62.9 24.4045 62.7736 24.7097 62.5485 24.9348C62.3235 25.1598 62.0183 25.2863 61.7 25.2863C61.3817 25.2863 61.0765 25.1598 60.8515 24.9348C60.6264 24.7097 60.5 24.4045 60.5 24.0863V20.4863C60.5 20.168 60.6264 19.8628 60.8515 19.6377C61.0765 19.4127 61.3817 19.2863 61.7 19.2863C62.0183 19.2863 62.3235 19.4127 62.5485 19.6377C62.7736 19.8628 62.9 20.168 62.9 20.4863V24.0863Z" fill="#EAEFF9" stroke="#2858D1" stroke-linecap="round" stroke-linejoin="round"/>
<path d="M48.5 31.2863C48.5 31.6423 48.3945 31.9903 48.1967 32.2863C47.9989 32.5823 47.7178 32.813 47.3889 32.9492C47.0599 33.0855 46.698 33.1211 46.3489 33.0517C45.9997 32.9822 45.679 32.8108 45.4272 32.5591C45.1755 32.3073 45.0041 31.9866 44.9346 31.6374C44.8652 31.2883 44.9008 30.9263 45.037 30.5974C45.1733 30.2685 45.404 29.9874 45.7 29.7896C45.996 29.5918 46.344 29.4863 46.7 29.4863C47.1766 29.4889 47.6329 29.6794 47.9699 30.0164C48.3069 30.3534 48.4974 30.8097 48.5 31.2863V31.2863Z" fill="#EAEFF9" stroke="#2858D1" stroke-linecap="round" stroke-linejoin="round"/>
<path d="M36.5 22.2863V16.8863C36.5 13.0672 38.0171 9.40445 40.7177 6.70393C43.4182 4.00341 47.0809 2.48627 50.9 2.48627C54.7191 2.48627 58.3818 4.00341 61.0823 6.70393C63.7829 9.40445 65.3 13.0672 65.3 16.8863V22.2863" stroke="#2858D1" stroke-linecap="round" stroke-linejoin="round"/>
<path d="M39.63 64.9862H41.86L37.09 50.1762C37.0222 49.9674 36.8875 49.7867 36.7068 49.662C36.5261 49.5373 36.3093 49.4755 36.09 49.4862H34.63L39.63 64.9862Z" fill="#EAEFF9" stroke="#2858D1" stroke-linejoin="round"/>
<path d="M20.13 64.9863H39.63L34.63 49.4863H16.5C16.3422 49.4864 16.1866 49.5239 16.046 49.5956C15.9054 49.6674 15.7839 49.7714 15.6912 49.8992C15.5985 50.027 15.5374 50.1749 15.5129 50.3308C15.4884 50.4867 15.5011 50.6462 15.55 50.7963L20.13 64.9863Z" fill="#EAEFF9"/>
<path d="M20.13 64.9863H40.63V67.4863H22.13C21.5996 67.4863 21.0909 67.2756 20.7158 66.9005C20.3407 66.5254 20.13 66.0167 20.13 65.4863V64.9863Z" fill="#EAEFF9" stroke="#2858D1" stroke-linejoin="round"/>
<path d="M40.63 64.9863H49.63C49.7626 64.9863 49.8898 65.0389 49.9836 65.1327C50.0773 65.2265 50.13 65.3537 50.13 65.4863C50.13 66.0167 49.9193 66.5254 49.5442 66.9005C49.1691 67.2756 48.6604 67.4863 48.13 67.4863H40.63V64.9863Z" fill="#EAEFF9" stroke="#2858D1" stroke-linejoin="round"/>
<path d="M28.4999 56.7363C28.4904 56.5407 28.5314 56.3459 28.6189 56.1708C28.7065 55.9956 28.8377 55.846 28.9999 55.7363C28.8981 55.5913 28.7635 55.4723 28.6072 55.389C28.4508 55.3056 28.2771 55.2601 28.0999 55.2563C27.7199 55.2563 27.3499 55.4763 27.1599 55.4763C26.9699 55.4763 26.6699 55.2563 26.3499 55.2663C26.145 55.2741 25.9455 55.3342 25.7705 55.441C25.5954 55.5478 25.4506 55.6976 25.3499 55.8763C25.1873 56.2821 25.1304 56.7225 25.1846 57.1563C25.2388 57.5901 25.4024 58.003 25.6599 58.3563C25.8699 58.6563 26.1199 58.9863 26.4399 58.9763C26.7599 58.9663 26.8699 58.7763 27.2399 58.7763C27.6099 58.7763 27.7299 58.9763 28.0499 58.9663C28.3699 58.9563 28.5999 58.6663 28.8099 58.3663C28.9511 58.1475 29.0652 57.9125 29.1499 57.6663C28.9646 57.5888 28.8051 57.4602 28.69 57.2956C28.575 57.1309 28.509 56.937 28.4999 56.7363V56.7363Z" fill="white" stroke="#2858D1" stroke-linejoin="round"/>
<path d="M27.63 53.9863L28.08 53.5363" stroke="#2858D1" stroke-linecap="round" stroke-linejoin="round"/>
<path d="M20.13 64.9863H39.63L34.63 49.4863H16.5C16.3422 49.4864 16.1866 49.5239 16.046 49.5956C15.9054 49.6674 15.7839 49.7714 15.6912 49.8992C15.5985 50.027 15.5374 50.1749 15.5129 50.3308C15.4884 50.4867 15.5011 50.6462 15.55 50.7963L20.13 64.9863Z" stroke="#2858D1" stroke-linejoin="round"/>
</g>
<defs>
<clipPath id="clip0">
<rect width="87" height="75" fill="white"/>
</clipPath>
</defs>
</svg>
