<svg width="33" height="32" viewBox="0 0 33 32" fill="none" xmlns="http://www.w3.org/2000/svg">
<path d="M32.7661 6.07514C31.5888 6.59685 30.3235 6.94949 28.9955 7.10785C30.3507 6.29619 31.3919 5.01102 31.882 3.4795C30.6134 4.2311 29.2084 4.77685 27.713 5.07091C26.5155 3.79629 24.8092 3 22.9209 3C18.6832 3 15.5681 6.9505 16.5258 11.0527C11.0695 10.7793 6.2319 8.16817 2.99392 4.20053C1.27415 7.14757 2.10188 11.0043 5.02561 12.9564C3.94957 12.9224 2.93699 12.6273 2.05202 12.136C1.98079 15.1745 4.16044 18.0157 7.31765 18.6494C6.39369 18.9006 5.38165 18.9581 4.35299 18.7617C5.18825 21.3671 7.61295 23.2632 10.4858 23.3161C7.72565 25.4768 4.2493 26.442 0.766113 26.0319C3.67143 27.8926 7.12239 28.9785 10.8299 28.9785C23.0188 28.9785 29.9052 18.6941 29.4902 9.47003C30.773 8.54541 31.886 7.39035 32.7661 6.07514Z" fill="#1A97F0"/>
</svg>
